<mxfile host="app.diagrams.net" modified="2024-05-15T15:04:16.790Z" agent="Mozilla/5.0 (Windows NT 10.0; Win64; x64) AppleWebKit/537.36 (KHTML, like Gecko) Chrome/123.0.0.0 Safari/537.36 OPR/109.0.0.0" etag="MyzEI2A3a4j6WPd5kdqp" version="24.3.1" type="github">
  <diagram name="Página-1" id="k12vF5GZD4Jgr2yxI6np">
    <mxGraphModel dx="1393" dy="789" grid="1" gridSize="10" guides="1" tooltips="1" connect="1" arrows="1" fold="1" page="1" pageScale="1" pageWidth="827" pageHeight="1169" math="0" shadow="0">
      <root>
        <mxCell id="0" />
        <mxCell id="1" parent="0" />
        <mxCell id="iOpOKTiMhZSJ0YGTTrD3-2" style="edgeStyle=orthogonalEdgeStyle;rounded=0;orthogonalLoop=1;jettySize=auto;html=1;exitX=0.5;exitY=1;exitDx=0;exitDy=0;entryX=0.5;entryY=0;entryDx=0;entryDy=0;" edge="1" parent="1" source="Gn4x0j2BB07o5eoxoqjv-3" target="Gn4x0j2BB07o5eoxoqjv-4">
          <mxGeometry relative="1" as="geometry" />
        </mxCell>
        <mxCell id="Gn4x0j2BB07o5eoxoqjv-3" value="&lt;p style=&quot;margin:0px;margin-top:4px;text-align:center;&quot;&gt;&lt;i&gt;&amp;lt;&amp;lt;Interface&amp;gt;&amp;gt;&lt;/i&gt;&lt;br&gt;&lt;b&gt;Fornecedor&lt;/b&gt;&lt;/p&gt;&lt;hr size=&quot;1&quot; style=&quot;border-style:solid;&quot;&gt;&lt;p style=&quot;margin:0px;margin-left:4px;&quot;&gt;+ inserirFornecedor(DadosFornecedor): void&lt;/p&gt;&lt;p style=&quot;margin:0px;margin-left:4px;&quot;&gt;+ buscarFornecedor(String): DadosFornecedor&lt;/p&gt;&lt;p style=&quot;margin:0px;margin-left:4px;&quot;&gt;+ buscarTodosFornecedores(): Array&amp;lt;DadosFornecedor&amp;gt;&lt;/p&gt;&lt;p style=&quot;margin:0px;margin-left:4px;&quot;&gt;+ editarFornecedor(DadosFornecedor): void&lt;/p&gt;&lt;p style=&quot;margin:0px;margin-left:4px;&quot;&gt;+ excluirFornecedor(String): void&lt;/p&gt;" style="verticalAlign=top;align=left;overflow=fill;html=1;whiteSpace=wrap;" parent="1" vertex="1">
          <mxGeometry x="230" y="30" width="280" height="140" as="geometry" />
        </mxCell>
        <mxCell id="iOpOKTiMhZSJ0YGTTrD3-20" style="edgeStyle=orthogonalEdgeStyle;rounded=0;orthogonalLoop=1;jettySize=auto;html=1;exitX=1;exitY=0.5;exitDx=0;exitDy=0;entryX=1;entryY=0.5;entryDx=0;entryDy=0;" edge="1" parent="1" source="Gn4x0j2BB07o5eoxoqjv-4" target="iOpOKTiMhZSJ0YGTTrD3-8">
          <mxGeometry relative="1" as="geometry" />
        </mxCell>
        <mxCell id="iOpOKTiMhZSJ0YGTTrD3-21" style="edgeStyle=orthogonalEdgeStyle;rounded=0;orthogonalLoop=1;jettySize=auto;html=1;exitX=1;exitY=0.5;exitDx=0;exitDy=0;entryX=1;entryY=0.5;entryDx=0;entryDy=0;" edge="1" parent="1" source="Gn4x0j2BB07o5eoxoqjv-4" target="iOpOKTiMhZSJ0YGTTrD3-6">
          <mxGeometry relative="1" as="geometry" />
        </mxCell>
        <mxCell id="iOpOKTiMhZSJ0YGTTrD3-22" style="edgeStyle=orthogonalEdgeStyle;rounded=0;orthogonalLoop=1;jettySize=auto;html=1;exitX=0;exitY=0.5;exitDx=0;exitDy=0;entryX=0;entryY=0.5;entryDx=0;entryDy=0;" edge="1" parent="1" source="Gn4x0j2BB07o5eoxoqjv-4" target="iOpOKTiMhZSJ0YGTTrD3-4">
          <mxGeometry relative="1" as="geometry" />
        </mxCell>
        <mxCell id="iOpOKTiMhZSJ0YGTTrD3-23" style="edgeStyle=orthogonalEdgeStyle;rounded=0;orthogonalLoop=1;jettySize=auto;html=1;exitX=0;exitY=0.5;exitDx=0;exitDy=0;entryX=0;entryY=0.5;entryDx=0;entryDy=0;" edge="1" parent="1" source="Gn4x0j2BB07o5eoxoqjv-4" target="iOpOKTiMhZSJ0YGTTrD3-7">
          <mxGeometry relative="1" as="geometry" />
        </mxCell>
        <mxCell id="iOpOKTiMhZSJ0YGTTrD3-24" style="edgeStyle=orthogonalEdgeStyle;rounded=0;orthogonalLoop=1;jettySize=auto;html=1;exitX=0;exitY=0.5;exitDx=0;exitDy=0;entryX=0;entryY=0.5;entryDx=0;entryDy=0;" edge="1" parent="1" source="Gn4x0j2BB07o5eoxoqjv-4" target="iOpOKTiMhZSJ0YGTTrD3-5">
          <mxGeometry relative="1" as="geometry" />
        </mxCell>
        <mxCell id="Gn4x0j2BB07o5eoxoqjv-4" value="&lt;p style=&quot;margin:0px;margin-top:4px;text-align:center;&quot;&gt;&lt;i&gt;&amp;lt;&amp;lt;MiddleWare&amp;gt;&amp;gt;&lt;/i&gt;&lt;br&gt;&lt;b&gt;Fornecedor&lt;/b&gt;&lt;/p&gt;&lt;hr size=&quot;1&quot; style=&quot;border-style:solid;&quot;&gt;&lt;p style=&quot;margin:0px;margin-left:4px;&quot;&gt;+ inserirFornecedor(DadosFornecedor): void&lt;/p&gt;&lt;p style=&quot;margin:0px;margin-left:4px;&quot;&gt;+ buscarFornecedor(String): DadosFornecedor&lt;/p&gt;&lt;p style=&quot;margin:0px;margin-left:4px;&quot;&gt;+ buscarTodosFornecedores(): Array&amp;lt;DadosFornecedor&amp;gt;&lt;/p&gt;&lt;p style=&quot;margin:0px;margin-left:4px;&quot;&gt;+ editarFornecedor(DadosFornecedor): void&lt;/p&gt;&lt;p style=&quot;margin:0px;margin-left:4px;&quot;&gt;+ excluirFornecedor(String): void&lt;/p&gt;" style="verticalAlign=top;align=left;overflow=fill;html=1;whiteSpace=wrap;" parent="1" vertex="1">
          <mxGeometry x="230" y="230" width="280" height="140" as="geometry" />
        </mxCell>
        <mxCell id="Gn4x0j2BB07o5eoxoqjv-11" style="edgeStyle=orthogonalEdgeStyle;rounded=0;orthogonalLoop=1;jettySize=auto;html=1;" parent="1" source="Gn4x0j2BB07o5eoxoqjv-5" target="Gn4x0j2BB07o5eoxoqjv-12" edge="1">
          <mxGeometry relative="1" as="geometry">
            <mxPoint x="590" y="530" as="targetPoint" />
          </mxGeometry>
        </mxCell>
        <mxCell id="Gn4x0j2BB07o5eoxoqjv-5" value="&lt;p style=&quot;margin:0px;margin-top:4px;text-align:center;&quot;&gt;&lt;b&gt;Fornecedor&lt;/b&gt;&lt;/p&gt;&lt;hr size=&quot;1&quot; style=&quot;border-style:solid;&quot;&gt;&lt;p style=&quot;margin:0px;margin-left:4px;&quot;&gt;+ inserirFornecedor(DadosFornecedor): void&lt;/p&gt;&lt;p style=&quot;margin:0px;margin-left:4px;&quot;&gt;+ buscarFornecedor(String): DadosFornecedor&lt;/p&gt;&lt;p style=&quot;margin:0px;margin-left:4px;&quot;&gt;+ buscarTodosFornecedores(): Array&amp;lt;DadosFornecedor&amp;gt;&lt;/p&gt;&lt;p style=&quot;margin:0px;margin-left:4px;&quot;&gt;+ editarFornecedor(DadosFornecedor): void&lt;/p&gt;&lt;p style=&quot;margin:0px;margin-left:4px;&quot;&gt;+ excluirFornecedor(String): void&lt;/p&gt;" style="verticalAlign=top;align=left;overflow=fill;html=1;whiteSpace=wrap;" parent="1" vertex="1">
          <mxGeometry x="260" y="710" width="280" height="140" as="geometry" />
        </mxCell>
        <mxCell id="iOpOKTiMhZSJ0YGTTrD3-1" value="" style="edgeStyle=orthogonalEdgeStyle;rounded=0;orthogonalLoop=1;jettySize=auto;html=1;" edge="1" parent="1" source="Gn4x0j2BB07o5eoxoqjv-12" target="Gn4x0j2BB07o5eoxoqjv-5">
          <mxGeometry relative="1" as="geometry" />
        </mxCell>
        <mxCell id="Gn4x0j2BB07o5eoxoqjv-12" value="BD" style="shape=cylinder3;whiteSpace=wrap;html=1;boundedLbl=1;backgroundOutline=1;size=15;" parent="1" vertex="1">
          <mxGeometry x="370" y="880" width="60" height="80" as="geometry" />
        </mxCell>
        <mxCell id="iOpOKTiMhZSJ0YGTTrD3-25" style="edgeStyle=orthogonalEdgeStyle;rounded=0;orthogonalLoop=1;jettySize=auto;html=1;exitX=1;exitY=0.5;exitDx=0;exitDy=0;entryX=0.5;entryY=0;entryDx=0;entryDy=0;" edge="1" parent="1" source="iOpOKTiMhZSJ0YGTTrD3-4" target="Gn4x0j2BB07o5eoxoqjv-5">
          <mxGeometry relative="1" as="geometry" />
        </mxCell>
        <mxCell id="iOpOKTiMhZSJ0YGTTrD3-4" value="&lt;p style=&quot;margin:0px;margin-top:4px;text-align:center;&quot;&gt;&lt;i&gt;&amp;lt;&amp;lt;Component&amp;gt;&amp;gt;&lt;/i&gt;&lt;br&gt;&lt;b&gt;inserirFornecedor&lt;/b&gt;&lt;/p&gt;&lt;hr size=&quot;1&quot; style=&quot;border-style:solid;&quot;&gt;&lt;p style=&quot;margin:0px;margin-left:4px;&quot;&gt;&amp;gt; Entrada: DadosFornecedor&lt;/p&gt;&lt;p style=&quot;margin:0px;margin-left:4px;&quot;&gt;&amp;lt; Saída: void&lt;/p&gt;" style="verticalAlign=top;align=left;overflow=fill;html=1;whiteSpace=wrap;" vertex="1" parent="1">
          <mxGeometry x="120" y="410" width="170" height="90" as="geometry" />
        </mxCell>
        <mxCell id="iOpOKTiMhZSJ0YGTTrD3-27" style="edgeStyle=orthogonalEdgeStyle;rounded=0;orthogonalLoop=1;jettySize=auto;html=1;exitX=1;exitY=0.5;exitDx=0;exitDy=0;entryX=0.5;entryY=0;entryDx=0;entryDy=0;" edge="1" parent="1" source="iOpOKTiMhZSJ0YGTTrD3-5" target="Gn4x0j2BB07o5eoxoqjv-5">
          <mxGeometry relative="1" as="geometry" />
        </mxCell>
        <mxCell id="iOpOKTiMhZSJ0YGTTrD3-5" value="&lt;p style=&quot;margin:0px;margin-top:4px;text-align:center;&quot;&gt;&lt;i&gt;&amp;lt;&amp;lt;Component&amp;gt;&amp;gt;&lt;/i&gt;&lt;br&gt;&lt;b&gt;buscarFornecedor&lt;/b&gt;&lt;/p&gt;&lt;hr size=&quot;1&quot; style=&quot;border-style:solid;&quot;&gt;&lt;p style=&quot;margin:0px;margin-left:4px;&quot;&gt;&amp;gt; Entrada: Strinng&lt;/p&gt;&lt;p style=&quot;margin:0px;margin-left:4px;&quot;&gt;&amp;lt; Saída:DadosFornecedor&lt;/p&gt;" style="verticalAlign=top;align=left;overflow=fill;html=1;whiteSpace=wrap;" vertex="1" parent="1">
          <mxGeometry x="120" y="610" width="170" height="90" as="geometry" />
        </mxCell>
        <mxCell id="iOpOKTiMhZSJ0YGTTrD3-29" style="edgeStyle=orthogonalEdgeStyle;rounded=0;orthogonalLoop=1;jettySize=auto;html=1;exitX=0;exitY=0.5;exitDx=0;exitDy=0;entryX=0.5;entryY=0;entryDx=0;entryDy=0;" edge="1" parent="1" source="iOpOKTiMhZSJ0YGTTrD3-6" target="Gn4x0j2BB07o5eoxoqjv-5">
          <mxGeometry relative="1" as="geometry" />
        </mxCell>
        <mxCell id="iOpOKTiMhZSJ0YGTTrD3-6" value="&lt;p style=&quot;margin:0px;margin-top:4px;text-align:center;&quot;&gt;&lt;i&gt;&amp;lt;&amp;lt;Component&amp;gt;&amp;gt;&lt;/i&gt;&lt;br&gt;&lt;b&gt;buscarTodosFornecedores&lt;/b&gt;&lt;/p&gt;&lt;hr size=&quot;1&quot; style=&quot;border-style:solid;&quot;&gt;&lt;p style=&quot;margin:0px;margin-left:4px;&quot;&gt;&amp;gt; Entrada: void&lt;/p&gt;&lt;p style=&quot;margin:0px;margin-left:4px;&quot;&gt;&amp;lt; Saída: Array&amp;lt;DadosFornecedor&amp;gt;&lt;/p&gt;" style="verticalAlign=top;align=left;overflow=fill;html=1;whiteSpace=wrap;" vertex="1" parent="1">
          <mxGeometry x="435" y="520" width="200" height="90" as="geometry" />
        </mxCell>
        <mxCell id="iOpOKTiMhZSJ0YGTTrD3-26" style="edgeStyle=orthogonalEdgeStyle;rounded=0;orthogonalLoop=1;jettySize=auto;html=1;exitX=1;exitY=0.5;exitDx=0;exitDy=0;entryX=0.5;entryY=0;entryDx=0;entryDy=0;" edge="1" parent="1" source="iOpOKTiMhZSJ0YGTTrD3-7" target="Gn4x0j2BB07o5eoxoqjv-5">
          <mxGeometry relative="1" as="geometry" />
        </mxCell>
        <mxCell id="iOpOKTiMhZSJ0YGTTrD3-7" value="&lt;p style=&quot;margin:0px;margin-top:4px;text-align:center;&quot;&gt;&lt;i&gt;&amp;lt;&amp;lt;Component&amp;gt;&amp;gt;&lt;/i&gt;&lt;br&gt;&lt;b&gt;editarFornecedor&lt;/b&gt;&lt;/p&gt;&lt;hr size=&quot;1&quot; style=&quot;border-style:solid;&quot;&gt;&lt;p style=&quot;margin:0px;margin-left:4px;&quot;&gt;&amp;gt; Entrada: DadosFornecedor&lt;/p&gt;&lt;p style=&quot;margin:0px;margin-left:4px;&quot;&gt;&amp;lt; Saída: void&lt;/p&gt;" style="verticalAlign=top;align=left;overflow=fill;html=1;whiteSpace=wrap;" vertex="1" parent="1">
          <mxGeometry x="120" y="510" width="170" height="90" as="geometry" />
        </mxCell>
        <mxCell id="iOpOKTiMhZSJ0YGTTrD3-28" style="edgeStyle=orthogonalEdgeStyle;rounded=0;orthogonalLoop=1;jettySize=auto;html=1;exitX=0;exitY=0.5;exitDx=0;exitDy=0;entryX=0.5;entryY=0;entryDx=0;entryDy=0;" edge="1" parent="1" source="iOpOKTiMhZSJ0YGTTrD3-8" target="Gn4x0j2BB07o5eoxoqjv-5">
          <mxGeometry relative="1" as="geometry" />
        </mxCell>
        <mxCell id="iOpOKTiMhZSJ0YGTTrD3-8" value="&lt;p style=&quot;margin:0px;margin-top:4px;text-align:center;&quot;&gt;&lt;i&gt;&amp;lt;&amp;lt;Component&amp;gt;&amp;gt;&lt;/i&gt;&lt;br&gt;&lt;b&gt;excluirFornecedor&lt;/b&gt;&lt;/p&gt;&lt;hr size=&quot;1&quot; style=&quot;border-style:solid;&quot;&gt;&lt;p style=&quot;margin:0px;margin-left:4px;&quot;&gt;&amp;gt; Entrada: String&lt;/p&gt;&lt;p style=&quot;margin:0px;margin-left:4px;&quot;&gt;&amp;lt; Saída: void&lt;/p&gt;" style="verticalAlign=top;align=left;overflow=fill;html=1;whiteSpace=wrap;" vertex="1" parent="1">
          <mxGeometry x="450" y="420" width="170" height="90" as="geometry" />
        </mxCell>
      </root>
    </mxGraphModel>
  </diagram>
</mxfile>
